<svg width="24" height="24" viewBox="0 0 24 24" fill="none" xmlns="http://www.w3.org/2000/svg">
<path d="M6 6.75003C6.59334 6.75003 7.17334 6.57406 7.66669 6.24441C8.16003 5.91477 8.5446 5.44628 8.77167 4.8981C8.99873 4.34992 9.05814 3.74671 8.94238 3.16476C8.82663 2.58282 8.5409 2.04825 8.12134 1.62869C7.70178 1.20913 7.16721 0.923402 6.58527 0.807646C6.00332 0.69189 5.40011 0.751298 4.85193 0.978361C4.30375 1.20542 3.83526 1.58999 3.50562 2.08334C3.17597 2.57669 3 3.15668 3 3.75003C3 4.54568 3.31605 5.30876 3.87866 5.87137C4.44127 6.43398 5.20435 6.75003 6 6.75003V6.75003Z" stroke="#EC1115" stroke-linecap="round" stroke-linejoin="round"/>
<path d="M10.74 11.25C10.2313 10.1692 9.36916 9.29428 8.29604 8.7696C7.22292 8.24491 6.00293 8.10187 4.83754 8.36408C3.67216 8.62629 2.63104 9.2781 1.88607 10.2119C1.1411 11.1456 0.73683 12.3055 0.740009 13.5V15.75H3.00002L3.75002 23.25H8.25002L8.77004 18.03" stroke="#EC1115" stroke-linecap="round" stroke-linejoin="round"/>
<path d="M18 11.68L19.54 15H22.54C22.692 14.9914 22.843 15.0305 22.9717 15.1119C23.1004 15.1934 23.2004 15.313 23.2577 15.4541C23.315 15.5952 23.3268 15.7506 23.2913 15.8987C23.2559 16.0468 23.175 16.1802 23.06 16.28L20.46 18.85L21.9 22.16C21.9667 22.3125 21.9835 22.4823 21.948 22.645C21.9125 22.8076 21.8265 22.9549 21.7023 23.0658C21.5781 23.1767 21.4221 23.2455 21.2564 23.2625C21.0908 23.2794 20.9241 23.2435 20.78 23.16L17.29 21.16L13.81 23.16C13.6662 23.242 13.5005 23.2775 13.3357 23.2614C13.1709 23.2452 13.0152 23.1784 12.89 23.07C12.7675 22.9614 12.6823 22.817 12.6464 22.6573C12.6105 22.4976 12.6257 22.3306 12.69 22.18L14.13 18.87L11.53 16.3C11.4171 16.2 11.3374 16.0679 11.3017 15.9213C11.2659 15.7748 11.2758 15.6208 11.33 15.48C11.3883 15.3408 11.4873 15.2224 11.614 15.1403C11.7406 15.0583 11.8891 15.0163 12.04 15.02H15.04L16.58 11.7C16.6475 11.57 16.7494 11.461 16.8746 11.3849C16.9998 11.3089 17.1435 11.2686 17.29 11.2686C17.4365 11.2686 17.5802 11.3089 17.7054 11.3849C17.8306 11.461 17.9325 11.57 18 11.7V11.68Z" stroke="#EC1115" stroke-linecap="round" stroke-linejoin="round"/>
</svg>
