<svg width="238" height="514" viewBox="0 0 238 514" fill="none" xmlns="http://www.w3.org/2000/svg">
<path d="M140.627 503H177C204.614 503 227 480.614 227 453V60.0001C227 32.3858 204.614 10.0001 177 10.0001H136" stroke="#343541" stroke-width="2" stroke-linecap="square" stroke-dasharray="8 8"/>
<path d="M134.373 503H98C70.3858 503 48 480.614 48 453V60.0001C48 32.3858 70.3858 10.0001 98 10.0001H139" stroke="#343541" stroke-width="2" stroke-linecap="square"/>
<rect x="55.5685" y="62.4151" width="92.1225" height="22.3327" rx="11.1664" fill="#EC1115"/>
<path d="M88.7351 75.2194H85.66L85.0166 77.0677H83.5826L86.5814 69.1291H87.8191L90.8233 77.0677H89.3839L88.7351 75.2194ZM86.0471 74.1071H88.348L87.1975 70.8139L86.0471 74.1071ZM93.2381 71.1683L93.2762 71.8498C93.7124 71.3228 94.2849 71.0593 94.9937 71.0593C96.2223 71.0593 96.8475 71.7626 96.8693 73.1693V77.0677H95.5444V73.2456C95.5444 72.8712 95.4626 72.595 95.299 72.4169C95.1391 72.2351 94.8756 72.1443 94.5084 72.1443C93.9741 72.1443 93.5761 72.386 93.3144 72.8694V77.0677H91.9895V71.1683H93.2381ZM102.419 77.0677C102.361 76.955 102.31 76.7715 102.266 76.517C101.845 76.9569 101.329 77.1768 100.718 77.1768C100.126 77.1768 99.6421 77.0077 99.2677 76.6697C98.8933 76.3317 98.7061 75.9136 98.7061 75.4157C98.7061 74.7868 98.9387 74.3052 99.404 73.9708C99.8729 73.6328 100.542 73.4637 101.41 73.4637H102.223V73.0766C102.223 72.7713 102.137 72.5277 101.967 72.346C101.796 72.1606 101.536 72.0679 101.187 72.0679C100.885 72.0679 100.638 72.1443 100.445 72.2969C100.253 72.446 100.156 72.6368 100.156 72.8694H98.8315C98.8315 72.5459 98.9387 72.2442 99.1532 71.9643C99.3676 71.6808 99.6584 71.4591 100.026 71.2992C100.396 71.1392 100.809 71.0593 101.263 71.0593C101.954 71.0593 102.505 71.2337 102.915 71.5827C103.326 71.928 103.537 72.4151 103.548 73.0439V75.7046C103.548 76.2353 103.622 76.6588 103.771 76.975V77.0677H102.419ZM100.963 76.1136C101.225 76.1136 101.47 76.05 101.699 75.9227C101.932 75.7955 102.107 75.6247 102.223 75.4102V74.2979H101.509C101.018 74.2979 100.649 74.3834 100.402 74.5542C100.155 74.725 100.031 74.9668 100.031 75.2794C100.031 75.5338 100.115 75.7374 100.282 75.89C100.453 76.039 100.68 76.1136 100.963 76.1136ZM107.015 77.0677H105.69V68.6929H107.015V77.0677ZM111.196 75.1703L112.396 71.1683H113.808L111.463 77.9619C111.103 78.9542 110.493 79.4504 109.631 79.4504C109.439 79.4504 109.226 79.4177 108.993 79.3522V78.3272L109.244 78.3436C109.579 78.3436 109.829 78.2818 109.997 78.1582C110.167 78.0382 110.302 77.8347 110.4 77.5475L110.591 77.0405L108.519 71.1683H109.947L111.196 75.1703ZM118.551 75.4647C118.551 75.2285 118.452 75.0485 118.256 74.925C118.064 74.8014 117.742 74.6923 117.291 74.5978C116.84 74.5033 116.464 74.3834 116.162 74.238C115.501 73.9181 115.17 73.4546 115.17 72.8476C115.17 72.3387 115.385 71.9135 115.814 71.5718C116.242 71.2301 116.788 71.0593 117.449 71.0593C118.154 71.0593 118.723 71.2337 119.156 71.5827C119.592 71.9316 119.81 72.3842 119.81 72.9403H118.485C118.485 72.6859 118.391 72.475 118.202 72.3078C118.013 72.137 117.762 72.0516 117.449 72.0516C117.158 72.0516 116.92 72.1188 116.735 72.2533C116.553 72.3878 116.462 72.5677 116.462 72.7931C116.462 72.9966 116.548 73.1548 116.719 73.2674C116.889 73.3801 117.235 73.4946 117.755 73.6109C118.274 73.7236 118.681 73.8599 118.976 74.0199C119.274 74.1762 119.494 74.3652 119.636 74.5869C119.781 74.8086 119.854 75.0776 119.854 75.3939C119.854 75.9245 119.634 76.3553 119.194 76.6861C118.754 77.0132 118.178 77.1768 117.466 77.1768C116.982 77.1768 116.551 77.0895 116.173 76.9151C115.795 76.7406 115.501 76.5007 115.29 76.1953C115.079 75.89 114.974 75.5611 114.974 75.2085H116.261C116.279 75.5211 116.397 75.7628 116.615 75.9336C116.833 76.1008 117.122 76.1844 117.482 76.1844C117.831 76.1844 118.096 76.119 118.278 75.9882C118.46 75.8537 118.551 75.6792 118.551 75.4647ZM123.746 75.1703L124.946 71.1683H126.358L124.013 77.9619C123.653 78.9542 123.043 79.4504 122.181 79.4504C121.989 79.4504 121.776 79.4177 121.543 79.3522V78.3272L121.794 78.3436C122.128 78.3436 122.379 78.2818 122.546 78.1582C122.717 78.0382 122.852 77.8347 122.95 77.5475L123.141 77.0405L121.069 71.1683H122.497L123.746 75.1703ZM131.101 75.4647C131.101 75.2285 131.002 75.0485 130.806 74.925C130.613 74.8014 130.292 74.6923 129.841 74.5978C129.39 74.5033 129.014 74.3834 128.712 74.238C128.051 73.9181 127.72 73.4546 127.72 72.8476C127.72 72.3387 127.935 71.9135 128.363 71.5718C128.792 71.2301 129.338 71.0593 129.999 71.0593C130.704 71.0593 131.273 71.2337 131.706 71.5827C132.142 71.9316 132.36 72.3842 132.36 72.9403H131.035C131.035 72.6859 130.941 72.475 130.752 72.3078C130.563 72.137 130.312 72.0516 129.999 72.0516C129.708 72.0516 129.47 72.1188 129.285 72.2533C129.103 72.3878 129.012 72.5677 129.012 72.7931C129.012 72.9966 129.098 73.1548 129.269 73.2674C129.439 73.3801 129.785 73.4946 130.304 73.6109C130.824 73.7236 131.231 73.8599 131.526 74.0199C131.824 74.1762 132.044 74.3652 132.186 74.5869C132.331 74.8086 132.404 75.0776 132.404 75.3939C132.404 75.9245 132.184 76.3553 131.744 76.6861C131.304 77.0132 130.728 77.1768 130.016 77.1768C129.532 77.1768 129.101 77.0895 128.723 76.9151C128.345 76.7406 128.051 76.5007 127.84 76.1953C127.629 75.89 127.524 75.5611 127.524 75.2085H128.811C128.829 75.5211 128.947 75.7628 129.165 75.9336C129.383 76.1008 129.672 76.1844 130.032 76.1844C130.381 76.1844 130.646 76.119 130.828 75.9882C131.01 75.8537 131.101 75.6792 131.101 75.4647Z" fill="white"/>
<g filter="url(#filter0_d)">
<rect x="23" y="48.4571" width="50.2486" height="50.2486" rx="25.1243" fill="white"/>
<path d="M37.6558 83.1845H58.5928" stroke="#EC1115" stroke-width="1.3958" stroke-linecap="round" stroke-linejoin="round"/>
<path fill-rule="evenodd" clip-rule="evenodd" d="M42.5411 77.8246H39.7495C39.3641 77.8246 39.0516 78.1246 39.0516 78.4946V83.1845H43.239V78.4946C43.239 78.1246 42.9266 77.8246 42.5411 77.8246Z" stroke="#EC1115" stroke-width="1.3958" stroke-linecap="round" stroke-linejoin="round"/>
<path fill-rule="evenodd" clip-rule="evenodd" d="M49.5201 71.1248H46.7285C46.3431 71.1248 46.0306 71.4248 46.0306 71.7948V83.1845H50.218V71.7948C50.218 71.4248 49.9056 71.1248 49.5201 71.1248Z" stroke="#EC1115" stroke-width="1.3958" stroke-linecap="round" stroke-linejoin="round"/>
<path fill-rule="evenodd" clip-rule="evenodd" d="M56.4991 73.8047H53.7075C53.322 73.8047 53.0096 74.1047 53.0096 74.4747V83.1845H57.197V74.4747C57.197 74.1047 56.8845 73.8047 56.4991 73.8047Z" stroke="#EC1115" stroke-width="1.3958" stroke-linecap="round" stroke-linejoin="round"/>
<path d="M58.5928 67.1049V63.0851H54.4054" stroke="#EC1115" stroke-width="1.3958" stroke-linecap="round" stroke-linejoin="round"/>
<path d="M58.5928 63.0851L53.8936 67.5963C53.3491 68.1191 52.5496 68.3126 51.812 68.1001L46.4996 66.7369C45.7774 66.5518 45.0071 66.7503 44.4785 67.2577L39.0516 72.4675" stroke="#EC1115" stroke-width="1.3958" stroke-linecap="round" stroke-linejoin="round"/>
</g>
<rect x="55.5685" y="134.996" width="104.219" height="22.3327" rx="11.1664" fill="#EC1115"/>
<path d="M90.518 147.686L91.7393 141.71H93.1079L91.2759 149.649H89.9564L88.4461 143.853L86.9031 149.649H85.5782L83.7462 141.71H85.1147L86.347 147.675L87.8627 141.71H89.0186L90.518 147.686ZM94.2358 146.645C94.2358 146.067 94.3503 145.547 94.5793 145.085C94.8083 144.62 95.13 144.264 95.5444 144.017C95.9588 143.766 96.4349 143.641 96.9729 143.641C97.7689 143.641 98.4141 143.897 98.9085 144.409C99.4065 144.922 99.6754 145.602 99.7154 146.449L99.7209 146.759C99.7209 147.341 99.6082 147.861 99.3828 148.319C99.1611 148.777 98.8412 149.131 98.4232 149.382C98.0088 149.633 97.529 149.758 96.9838 149.758C96.1514 149.758 95.4844 149.482 94.9828 148.929C94.4848 148.373 94.2358 147.634 94.2358 146.71V146.645ZM95.5607 146.759C95.5607 147.366 95.6861 147.843 95.937 148.188C96.1878 148.53 96.5367 148.7 96.9838 148.7C97.4309 148.7 97.778 148.526 98.0252 148.177C98.276 147.828 98.4014 147.317 98.4014 146.645C98.4014 146.049 98.2724 145.576 98.0143 145.227C97.7598 144.878 97.4127 144.704 96.9729 144.704C96.5403 144.704 96.1968 144.876 95.9424 145.222C95.688 145.563 95.5607 146.076 95.5607 146.759ZM104.6 144.96C104.426 144.931 104.246 144.916 104.06 144.916C103.453 144.916 103.044 145.149 102.833 145.614V149.649H101.509V143.75H102.774L102.806 144.409C103.126 143.897 103.57 143.641 104.137 143.641C104.326 143.641 104.482 143.666 104.605 143.717L104.6 144.96ZM108.023 147.119L107.435 147.724V149.649H106.11V141.274H107.435V146.105L107.849 145.587L109.479 143.75H111.071L108.879 146.209L111.306 149.649H109.774L108.023 147.119ZM115.918 148.046C115.918 147.81 115.82 147.63 115.623 147.506C115.431 147.383 115.109 147.274 114.658 147.179C114.208 147.085 113.831 146.965 113.53 146.819C112.868 146.499 112.537 146.036 112.537 145.429C112.537 144.92 112.752 144.495 113.181 144.153C113.61 143.811 114.155 143.641 114.816 143.641C115.522 143.641 116.09 143.815 116.523 144.164C116.959 144.513 117.177 144.966 117.177 145.522H115.852C115.852 145.267 115.758 145.056 115.569 144.889C115.38 144.718 115.129 144.633 114.816 144.633C114.526 144.633 114.288 144.7 114.102 144.835C113.92 144.969 113.83 145.149 113.83 145.374C113.83 145.578 113.915 145.736 114.086 145.849C114.257 145.961 114.602 146.076 115.122 146.192C115.642 146.305 116.049 146.441 116.343 146.601C116.641 146.758 116.861 146.947 117.003 147.168C117.148 147.39 117.221 147.659 117.221 147.975C117.221 148.506 117.001 148.937 116.561 149.267C116.121 149.595 115.545 149.758 114.833 149.758C114.349 149.758 113.919 149.671 113.541 149.496C113.163 149.322 112.868 149.082 112.657 148.777C112.446 148.471 112.341 148.142 112.341 147.79H113.628C113.646 148.102 113.764 148.344 113.982 148.515C114.2 148.682 114.489 148.766 114.849 148.766C115.198 148.766 115.463 148.7 115.645 148.57C115.827 148.435 115.918 148.261 115.918 148.046ZM120.355 144.393C120.788 143.891 121.335 143.641 121.996 143.641C123.254 143.641 123.892 144.359 123.91 145.794V149.649H122.585V145.843C122.585 145.436 122.496 145.149 122.318 144.982C122.144 144.811 121.886 144.726 121.544 144.726C121.013 144.726 120.617 144.962 120.355 145.434V149.649H119.03V141.274H120.355V144.393ZM125.676 146.645C125.676 146.067 125.791 145.547 126.02 145.085C126.249 144.62 126.57 144.264 126.985 144.017C127.399 143.766 127.875 143.641 128.413 143.641C129.209 143.641 129.854 143.897 130.349 144.409C130.847 144.922 131.116 145.602 131.156 146.449L131.161 146.759C131.161 147.341 131.048 147.861 130.823 148.319C130.601 148.777 130.282 149.131 129.864 149.382C129.449 149.633 128.969 149.758 128.424 149.758C127.592 149.758 126.925 149.482 126.423 148.929C125.925 148.373 125.676 147.634 125.676 146.71V146.645ZM127.001 146.759C127.001 147.366 127.126 147.843 127.377 148.188C127.628 148.53 127.977 148.7 128.424 148.7C128.871 148.7 129.218 148.526 129.465 148.177C129.716 147.828 129.842 147.317 129.842 146.645C129.842 146.049 129.713 145.576 129.455 145.227C129.2 144.878 128.853 144.704 128.413 144.704C127.981 144.704 127.637 144.876 127.383 145.222C127.128 145.563 127.001 146.076 127.001 146.759ZM138.118 146.759C138.118 147.672 137.91 148.4 137.496 148.946C137.082 149.487 136.526 149.758 135.828 149.758C135.181 149.758 134.663 149.545 134.274 149.12V151.917H132.949V143.75H134.17L134.225 144.349C134.614 143.877 135.143 143.641 135.811 143.641C136.531 143.641 137.094 143.91 137.502 144.448C137.912 144.982 138.118 145.725 138.118 146.678V146.759ZM136.798 146.645C136.798 146.056 136.68 145.589 136.444 145.244C136.211 144.898 135.877 144.726 135.441 144.726C134.899 144.726 134.51 144.949 134.274 145.396V148.013C134.514 148.471 134.906 148.7 135.451 148.7C135.873 148.7 136.202 148.531 136.438 148.193C136.678 147.852 136.798 147.335 136.798 146.645ZM143.22 148.046C143.22 147.81 143.122 147.63 142.926 147.506C142.733 147.383 142.412 147.274 141.961 147.179C141.51 147.085 141.134 146.965 140.832 146.819C140.171 146.499 139.84 146.036 139.84 145.429C139.84 144.92 140.054 144.495 140.483 144.153C140.912 143.811 141.457 143.641 142.119 143.641C142.824 143.641 143.393 143.815 143.826 144.164C144.262 144.513 144.48 144.966 144.48 145.522H143.155C143.155 145.267 143.06 145.056 142.871 144.889C142.682 144.718 142.432 144.633 142.119 144.633C141.828 144.633 141.59 144.7 141.405 144.835C141.223 144.969 141.132 145.149 141.132 145.374C141.132 145.578 141.218 145.736 141.388 145.849C141.559 145.961 141.905 146.076 142.424 146.192C142.944 146.305 143.351 146.441 143.646 146.601C143.944 146.758 144.164 146.947 144.305 147.168C144.451 147.39 144.524 147.659 144.524 147.975C144.524 148.506 144.304 148.937 143.864 149.267C143.424 149.595 142.848 149.758 142.135 149.758C141.652 149.758 141.221 149.671 140.843 149.496C140.465 149.322 140.171 149.082 139.96 148.777C139.749 148.471 139.644 148.142 139.644 147.79H140.93C140.949 148.102 141.067 148.344 141.285 148.515C141.503 148.682 141.792 148.766 142.152 148.766C142.501 148.766 142.766 148.7 142.948 148.57C143.13 148.435 143.22 148.261 143.22 148.046Z" fill="white"/>
<g filter="url(#filter1_d)">
<rect x="23" y="121.038" width="50.2486" height="50.2486" rx="25.1243" fill="white"/>
<path d="M37.6558 139.643C41.7502 140.633 42.7551 144.954 44.6348 149.652H42.5411V152.244C42.5411 152.852 42.2994 153.436 41.8693 153.866C41.4391 154.296 40.8557 154.538 40.2473 154.538H39.0516V156.631" stroke="#EC1115" stroke-width="1.3958" stroke-linecap="round" stroke-linejoin="round"/>
<path d="M58.5927 139.643C54.4984 140.633 53.4925 144.954 51.6138 149.652H53.7075V152.244C53.7075 153.51 54.7338 154.537 56.0003 154.538H57.197V156.631" stroke="#EC1115" stroke-width="1.3958" stroke-linecap="round" stroke-linejoin="round"/>
<path fill-rule="evenodd" clip-rule="evenodd" d="M44.6348 141.975H46.7285V144.767L50.218 141.975H52.3117C52.6972 141.975 53.0096 141.663 53.0096 141.278V136.392C53.0096 136.007 52.6972 135.694 52.3117 135.694H44.6348C44.2494 135.694 43.937 136.007 43.937 136.392V141.278C43.937 141.663 44.2494 141.975 44.6348 141.975Z" stroke="#EC1115" stroke-width="1.3958" stroke-linecap="round" stroke-linejoin="round"/>
</g>
<rect x="55.5685" y="207.578" width="80.0256" height="22.3327" rx="11.1664" fill="#EC1115"/>
<path d="M84.2914 222.231V214.292H86.6359C87.3375 214.292 87.959 214.448 88.5006 214.761C89.0459 215.073 89.4675 215.517 89.7656 216.091C90.0636 216.666 90.2127 217.323 90.2127 218.065V218.463C90.2127 219.215 90.0618 219.877 89.7601 220.448C89.4621 221.018 89.035 221.458 88.4788 221.767C87.9263 222.076 87.292 222.231 86.576 222.231H84.2914ZM85.6709 215.404V221.129H86.5705C87.2939 221.129 87.8482 220.904 88.2335 220.453C88.6224 219.999 88.8205 219.348 88.8278 218.501V218.06C88.8278 217.198 88.6406 216.54 88.2662 216.086C87.8918 215.631 87.3484 215.404 86.6359 215.404H85.6709ZM94.7265 222.34C93.8869 222.34 93.2053 222.076 92.6819 221.549C92.1621 221.018 91.9022 220.313 91.9022 219.433V219.27C91.9022 218.681 92.0149 218.156 92.2403 217.694C92.4693 217.229 92.7891 216.867 93.1999 216.609C93.6106 216.351 94.0686 216.222 94.5739 216.222C95.3772 216.222 95.9969 216.478 96.4331 216.991C96.8729 217.503 97.0928 218.229 97.0928 219.166V219.701H93.2381C93.278 220.188 93.4398 220.573 93.7233 220.857C94.0105 221.14 94.3703 221.282 94.8029 221.282C95.4099 221.282 95.9042 221.036 96.2859 220.546L97.0002 221.227C96.7639 221.58 96.4477 221.854 96.0515 222.051C95.6589 222.243 95.2172 222.34 94.7265 222.34ZM94.5684 217.285C94.2049 217.285 93.9105 217.412 93.6851 217.667C93.4634 217.921 93.3217 218.276 93.2599 218.73H95.7843V218.632C95.7552 218.189 95.6371 217.854 95.4299 217.629C95.2227 217.4 94.9355 217.285 94.5684 217.285ZM102.103 220.628C102.103 220.391 102.005 220.211 101.808 220.088C101.616 219.964 101.294 219.855 100.843 219.761C100.393 219.666 100.016 219.546 99.7148 219.401C99.0532 219.081 98.7224 218.617 98.7224 218.01C98.7224 217.502 98.9369 217.076 99.3658 216.735C99.7947 216.393 100.34 216.222 101.002 216.222C101.707 216.222 102.276 216.397 102.708 216.745C103.144 217.094 103.362 217.547 103.362 218.103H102.037C102.037 217.849 101.943 217.638 101.754 217.471C101.565 217.3 101.314 217.214 101.002 217.214C100.711 217.214 100.473 217.282 100.287 217.416C100.106 217.551 100.015 217.731 100.015 217.956C100.015 218.159 100.1 218.318 100.271 218.43C100.442 218.543 100.787 218.657 101.307 218.774C101.827 218.886 102.234 219.023 102.528 219.183C102.826 219.339 103.046 219.528 103.188 219.75C103.333 219.971 103.406 220.24 103.406 220.557C103.406 221.087 103.186 221.518 102.746 221.849C102.306 222.176 101.73 222.34 101.018 222.34C100.534 222.34 100.104 222.252 99.7257 222.078C99.3476 221.903 99.0532 221.663 98.8424 221.358C98.6316 221.053 98.5262 220.724 98.5262 220.371H99.8129C99.8311 220.684 99.9492 220.926 100.167 221.096C100.385 221.264 100.674 221.347 101.034 221.347C101.383 221.347 101.649 221.282 101.83 221.151C102.012 221.016 102.103 220.842 102.103 220.628ZM106.644 222.231H105.319V216.331H106.644V222.231ZM105.237 214.799C105.237 214.595 105.301 214.426 105.428 214.292C105.559 214.157 105.744 214.09 105.984 214.09C106.224 214.09 106.41 214.157 106.54 214.292C106.671 214.426 106.737 214.595 106.737 214.799C106.737 214.999 106.671 215.166 106.54 215.301C106.41 215.431 106.224 215.497 105.984 215.497C105.744 215.497 105.559 215.431 105.428 215.301C105.301 215.166 105.237 214.999 105.237 214.799ZM108.53 219.237C108.53 218.321 108.744 217.591 109.173 217.045C109.606 216.497 110.178 216.222 110.891 216.222C111.563 216.222 112.092 216.457 112.477 216.925L112.537 216.331H113.731V222.051C113.731 222.825 113.49 223.435 113.006 223.883C112.526 224.33 111.878 224.553 111.06 224.553C110.627 224.553 110.204 224.462 109.789 224.281C109.379 224.102 109.066 223.868 108.852 223.577L109.479 222.781C109.886 223.265 110.387 223.506 110.983 223.506C111.423 223.506 111.77 223.386 112.025 223.147C112.279 222.91 112.406 222.561 112.406 222.1V221.702C112.025 222.127 111.516 222.34 110.88 222.34C110.189 222.34 109.624 222.065 109.184 221.516C108.748 220.967 108.53 220.208 108.53 219.237ZM109.849 219.352C109.849 219.944 109.969 220.411 110.209 220.753C110.453 221.091 110.789 221.26 111.218 221.26C111.752 221.26 112.148 221.031 112.406 220.573V217.978C112.156 217.531 111.763 217.307 111.229 217.307C110.793 217.307 110.453 217.48 110.209 217.825C109.969 218.17 109.849 218.679 109.849 219.352ZM116.997 216.331L117.035 217.013C117.471 216.486 118.044 216.222 118.752 216.222C119.981 216.222 120.606 216.925 120.628 218.332V222.231H119.303V218.408C119.303 218.034 119.221 217.758 119.058 217.58C118.898 217.398 118.634 217.307 118.267 217.307C117.733 217.307 117.335 217.549 117.073 218.032V222.231H115.748V216.331H116.997Z" fill="white"/>
<g filter="url(#filter2_d)">
<rect x="23" y="193.62" width="50.2486" height="50.2486" rx="25.1243" fill="white"/>
<path fill-rule="evenodd" clip-rule="evenodd" d="M41.8432 229.213V229.213C40.3015 229.213 39.0516 227.963 39.0516 226.421V214.518C39.0513 214.085 39.1523 213.657 39.3466 213.27L41.2188 209.525C41.337 209.288 41.5787 209.138 41.8432 209.138C42.1077 209.138 42.3495 209.288 42.4676 209.525L44.3398 213.27C44.5341 213.657 44.6351 214.085 44.6348 214.518V226.421C44.6348 227.963 43.385 229.213 41.8432 229.213Z" stroke="#EC1115" stroke-width="1.3958" stroke-linecap="round" stroke-linejoin="round"/>
<path d="M39.1307 213.859H44.5557" stroke="#EC1115" stroke-width="1.3958" stroke-linecap="round" stroke-linejoin="round"/>
<path d="M39.0516 225.723H44.6348" stroke="#EC1115" stroke-width="1.3958" stroke-linecap="round" stroke-linejoin="round"/>
<path fill-rule="evenodd" clip-rule="evenodd" d="M48.8222 209.672C48.8222 208.901 49.4471 208.276 50.218 208.276H55.8012C56.5721 208.276 57.197 208.901 57.197 209.672V227.817C57.197 228.588 56.5721 229.213 55.8012 229.213H50.218C49.4471 229.213 48.8222 228.588 48.8222 227.817V209.672Z" stroke="#EC1115" stroke-width="1.3958" stroke-linecap="round" stroke-linejoin="round"/>
<path d="M48.8222 212.463H51.6138" stroke="#EC1115" stroke-width="1.3958" stroke-linecap="round" stroke-linejoin="round"/>
<path d="M48.8222 216.651H51.6138" stroke="#EC1115" stroke-width="1.3958" stroke-linecap="round" stroke-linejoin="round"/>
<path d="M48.8222 220.838H51.6138" stroke="#EC1115" stroke-width="1.3958" stroke-linecap="round" stroke-linejoin="round"/>
<path d="M48.8222 225.025H51.6138" stroke="#EC1115" stroke-width="1.3958" stroke-linecap="round" stroke-linejoin="round"/>
</g>
<rect x="55.5685" y="280.159" width="114.455" height="22.3327" rx="11.1664" fill="#EC1115"/>
<path d="M84.2914 294.812V286.873H86.6359C87.3375 286.873 87.959 287.029 88.5006 287.342C89.0459 287.655 89.4675 288.098 89.7656 288.672C90.0636 289.247 90.2127 289.905 90.2127 290.646V291.044C90.2127 291.797 90.0618 292.458 89.7601 293.029C89.4621 293.599 89.035 294.039 88.4788 294.348C87.9263 294.657 87.292 294.812 86.576 294.812H84.2914ZM85.6709 287.985V293.71H86.5705C87.2939 293.71 87.8482 293.485 88.2335 293.034C88.6224 292.58 88.8205 291.929 88.8278 291.082V290.641C88.8278 289.779 88.6406 289.121 88.2662 288.667C87.8918 288.213 87.3484 287.985 86.6359 287.985H85.6709ZM94.7265 294.921C93.8869 294.921 93.2053 294.657 92.6819 294.13C92.1621 293.599 91.9022 292.894 91.9022 292.015V291.851C91.9022 291.262 92.0149 290.737 92.2403 290.275C92.4693 289.81 92.7891 289.448 93.1999 289.19C93.6106 288.932 94.0686 288.803 94.5739 288.803C95.3772 288.803 95.9969 289.06 96.4331 289.572C96.8729 290.085 97.0928 290.81 97.0928 291.747V292.282H93.2381C93.278 292.769 93.4398 293.154 93.7233 293.438C94.0105 293.721 94.3703 293.863 94.8029 293.863C95.4099 293.863 95.9042 293.618 96.2859 293.127L97.0002 293.808C96.7639 294.161 96.4477 294.435 96.0515 294.632C95.6589 294.824 95.2172 294.921 94.7265 294.921ZM94.5684 289.866C94.2049 289.866 93.9105 289.994 93.6851 290.248C93.4634 290.503 93.3217 290.857 93.2599 291.311H95.7843V291.213C95.7552 290.77 95.6371 290.435 95.4299 290.21C95.2227 289.981 94.9355 289.866 94.5684 289.866ZM100.8 293.132L102.048 288.912H103.417L101.372 294.812H100.222L98.1608 288.912H99.5348L100.8 293.132ZM107.44 294.921C106.6 294.921 105.919 294.657 105.395 294.13C104.876 293.599 104.616 292.894 104.616 292.015V291.851C104.616 291.262 104.728 290.737 104.954 290.275C105.183 289.81 105.503 289.448 105.913 289.19C106.324 288.932 106.782 288.803 107.287 288.803C108.091 288.803 108.71 289.06 109.147 289.572C109.586 290.085 109.806 290.81 109.806 291.747V292.282H105.952C105.992 292.769 106.153 293.154 106.437 293.438C106.724 293.721 107.084 293.863 107.516 293.863C108.123 293.863 108.618 293.618 108.999 293.127L109.714 293.808C109.477 294.161 109.161 294.435 108.765 294.632C108.372 294.824 107.931 294.921 107.44 294.921ZM107.282 289.866C106.918 289.866 106.624 289.994 106.399 290.248C106.177 290.503 106.035 290.857 105.973 291.311H108.498V291.213C108.469 290.77 108.351 290.435 108.143 290.21C107.936 289.981 107.649 289.866 107.282 289.866ZM112.919 294.812H111.594V286.437H112.919V294.812ZM114.788 291.807C114.788 291.23 114.903 290.71 115.132 290.248C115.361 289.783 115.683 289.427 116.097 289.179C116.511 288.929 116.988 288.803 117.526 288.803C118.322 288.803 118.967 289.06 119.461 289.572C119.959 290.085 120.228 290.764 120.268 291.611L120.274 291.922C120.274 292.504 120.161 293.023 119.935 293.481C119.714 293.939 119.394 294.294 118.976 294.545C118.561 294.795 118.082 294.921 117.536 294.921C116.704 294.921 116.037 294.645 115.535 294.092C115.037 293.536 114.788 292.796 114.788 291.873V291.807ZM116.113 291.922C116.113 292.529 116.239 293.005 116.49 293.35C116.74 293.692 117.089 293.863 117.536 293.863C117.984 293.863 118.331 293.689 118.578 293.34C118.829 292.991 118.954 292.48 118.954 291.807C118.954 291.211 118.825 290.739 118.567 290.39C118.312 290.041 117.965 289.866 117.526 289.866C117.093 289.866 116.749 290.039 116.495 290.384C116.241 290.726 116.113 291.239 116.113 291.922ZM127.23 291.922C127.23 292.834 127.023 293.563 126.608 294.108C126.194 294.65 125.638 294.921 124.94 294.921C124.293 294.921 123.775 294.708 123.386 294.283V297.08H122.061V288.912H123.283L123.337 289.512C123.726 289.04 124.255 288.803 124.924 288.803C125.643 288.803 126.207 289.072 126.614 289.61C127.025 290.145 127.23 290.888 127.23 291.84V291.922ZM125.911 291.807C125.911 291.219 125.792 290.752 125.556 290.406C125.324 290.061 124.989 289.888 124.553 289.888C124.011 289.888 123.622 290.112 123.386 290.559V293.176C123.626 293.634 124.019 293.863 124.564 293.863C124.985 293.863 125.314 293.694 125.551 293.356C125.791 293.014 125.911 292.498 125.911 291.807ZM130.272 288.912L130.31 289.528C130.724 289.045 131.291 288.803 132.011 288.803C132.8 288.803 133.34 289.105 133.63 289.708C134.059 289.105 134.663 288.803 135.441 288.803C136.091 288.803 136.575 288.983 136.891 289.343C137.211 289.703 137.374 290.234 137.382 290.935V294.812H136.057V290.973C136.057 290.599 135.975 290.324 135.811 290.15C135.648 289.975 135.377 289.888 134.999 289.888C134.697 289.888 134.45 289.97 134.257 290.134C134.068 290.294 133.936 290.504 133.859 290.766L133.865 294.812H132.54V290.93C132.522 290.235 132.167 289.888 131.477 289.888C130.946 289.888 130.57 290.105 130.348 290.537V294.812H129.023V288.912H130.272ZM142.01 294.921C141.17 294.921 140.489 294.657 139.965 294.13C139.446 293.599 139.186 292.894 139.186 292.015V291.851C139.186 291.262 139.298 290.737 139.524 290.275C139.753 289.81 140.073 289.448 140.483 289.19C140.894 288.932 141.352 288.803 141.857 288.803C142.661 288.803 143.28 289.06 143.717 289.572C144.156 290.085 144.376 290.81 144.376 291.747V292.282H140.521C140.561 292.769 140.723 293.154 141.007 293.438C141.294 293.721 141.654 293.863 142.086 293.863C142.693 293.863 143.188 293.618 143.569 293.127L144.284 293.808C144.047 294.161 143.731 294.435 143.335 294.632C142.942 294.824 142.501 294.921 142.01 294.921ZM141.852 289.866C141.488 289.866 141.194 289.994 140.969 290.248C140.747 290.503 140.605 290.857 140.543 291.311H143.068V291.213C143.039 290.77 142.921 290.435 142.713 290.21C142.506 289.981 142.219 289.866 141.852 289.866ZM147.309 288.912L147.347 289.594C147.783 289.067 148.356 288.803 149.065 288.803C150.293 288.803 150.918 289.507 150.94 290.913V294.812H149.615V290.99C149.615 290.615 149.534 290.339 149.37 290.161C149.21 289.979 148.946 289.888 148.579 289.888C148.045 289.888 147.647 290.13 147.385 290.613V294.812H146.06V288.912H147.309ZM154.625 287.478V288.912H155.667V289.894H154.625V293.187C154.625 293.412 154.669 293.576 154.756 293.678C154.847 293.776 155.007 293.825 155.236 293.825C155.389 293.825 155.543 293.807 155.699 293.77V294.795C155.398 294.879 155.107 294.921 154.827 294.921C153.809 294.921 153.3 294.359 153.3 293.236V289.894H152.33V288.912H153.3V287.478H154.625Z" fill="white"/>
<g filter="url(#filter3_d)">
<rect x="23" y="266.201" width="50.2486" height="50.2486" rx="25.1243" fill="white"/>
<path d="M40.4474 301.794L38.5733 299.452C37.9794 298.709 37.6558 297.787 37.6558 296.836V292.023C37.6558 291.252 38.2807 290.628 39.0516 290.628V290.628C39.8225 290.628 40.4474 291.252 40.4474 292.023V295.513" stroke="#EC1115" stroke-width="1.3958" stroke-linecap="round" stroke-linejoin="round"/>
<path d="M44.6348 301.794V298.876C44.6356 298.048 44.3904 297.238 43.9304 296.549L42.8678 294.954C42.6845 294.649 42.3842 294.432 42.0366 294.354C41.689 294.275 41.3246 294.343 41.0281 294.54V294.54C40.48 294.906 40.2907 295.622 40.587 296.211L41.8433 298.304" stroke="#EC1115" stroke-width="1.3958" stroke-linecap="round" stroke-linejoin="round"/>
<path d="M55.8012 301.794L57.6753 299.452C58.2692 298.709 58.5928 297.787 58.5928 296.836V292.023C58.5928 291.252 57.9679 290.628 57.197 290.628V290.628C56.4261 290.628 55.8012 291.252 55.8012 292.023V295.513" stroke="#EC1115" stroke-width="1.3958" stroke-linecap="round" stroke-linejoin="round"/>
<path d="M51.6138 301.794V298.876C51.613 298.048 51.8582 297.238 52.3182 296.549L53.3808 294.954C53.5641 294.649 53.8644 294.432 54.212 294.354C54.5596 294.275 54.924 294.343 55.2205 294.54V294.54C55.7686 294.906 55.9579 295.622 55.6616 296.211L54.4054 298.304" stroke="#EC1115" stroke-width="1.3958" stroke-linecap="round" stroke-linejoin="round"/>
<path d="M43.8597 282.563L40.4474 285.122L43.8597 287.681" stroke="#EC1115" stroke-width="1.3958" stroke-linecap="round" stroke-linejoin="round"/>
<path d="M52.3889 282.563L55.8012 285.122L52.3889 287.681" stroke="#EC1115" stroke-width="1.3958" stroke-linecap="round" stroke-linejoin="round"/>
<path d="M48.9776 280.857L47.271 289.387" stroke="#EC1115" stroke-width="1.3958" stroke-linecap="round" stroke-linejoin="round"/>
</g>
<rect x="55.5685" y="352.74" width="83.7477" height="22.3327" rx="11.1664" fill="#EC1115"/>
<path d="M90.0273 360.567H87.5519V367.393H86.1834V360.567H83.7299V359.454H90.0273V360.567ZM93.7233 367.502C92.8837 367.502 92.2021 367.239 91.6787 366.712C91.1589 366.181 90.899 365.476 90.899 364.596V364.432C90.899 363.844 91.0117 363.318 91.237 362.857C91.466 362.391 91.7859 362.03 92.1967 361.772C92.6074 361.514 93.0654 361.385 93.5706 361.385C94.374 361.385 94.9937 361.641 95.4299 362.153C95.8697 362.666 96.0896 363.391 96.0896 364.329V364.863H92.2348C92.2748 365.35 92.4366 365.736 92.7201 366.019C93.0072 366.303 93.3671 366.444 93.7996 366.444C94.4067 366.444 94.901 366.199 95.2827 365.708L95.9969 366.39C95.7607 366.742 95.4444 367.017 95.0482 367.213C94.6557 367.406 94.214 367.502 93.7233 367.502ZM93.5652 362.448C93.2017 362.448 92.9073 362.575 92.6819 362.829C92.4602 363.084 92.3184 363.438 92.2566 363.893H94.7811V363.795C94.752 363.351 94.6338 363.017 94.4267 362.791C94.2195 362.562 93.9323 362.448 93.5652 362.448ZM101.1 365.79C101.1 365.554 101.002 365.374 100.805 365.25C100.613 365.127 100.291 365.018 99.8402 364.923C99.3894 364.829 99.0132 364.709 98.7115 364.563C98.05 364.243 97.7192 363.78 97.7192 363.173C97.7192 362.664 97.9337 362.239 98.3626 361.897C98.7915 361.555 99.3367 361.385 99.9983 361.385C100.703 361.385 101.272 361.559 101.705 361.908C102.141 362.257 102.359 362.71 102.359 363.266H101.034C101.034 363.011 100.94 362.8 100.751 362.633C100.562 362.462 100.311 362.377 99.9983 362.377C99.7075 362.377 99.4694 362.444 99.284 362.579C99.1023 362.713 99.0114 362.893 99.0114 363.118C99.0114 363.322 99.0968 363.48 99.2677 363.593C99.4385 363.705 99.7838 363.82 100.304 363.936C100.823 364.049 101.231 364.185 101.525 364.345C101.823 364.502 102.043 364.691 102.185 364.912C102.33 365.134 102.403 365.403 102.403 365.719C102.403 366.25 102.183 366.681 101.743 367.011C101.303 367.339 100.727 367.502 100.015 367.502C99.5312 367.502 99.1005 367.415 98.7224 367.24C98.3444 367.066 98.05 366.826 97.8392 366.521C97.6283 366.215 97.5229 365.886 97.5229 365.534H98.8097C98.8278 365.846 98.946 366.088 99.1641 366.259C99.3822 366.426 99.6711 366.51 100.031 366.51C100.38 366.51 100.645 366.444 100.827 366.313C101.009 366.179 101.1 366.005 101.1 365.79ZM105.892 360.06V361.494H106.933V362.475H105.892V365.768C105.892 365.994 105.935 366.157 106.022 366.259C106.113 366.357 106.273 366.406 106.502 366.406C106.655 366.406 106.809 366.388 106.966 366.352V367.377C106.664 367.46 106.373 367.502 106.093 367.502C105.076 367.502 104.567 366.941 104.567 365.817V362.475H103.596V361.494H104.567V360.06H105.892ZM110.029 367.393H108.704V361.494H110.029V367.393ZM108.623 359.962C108.623 359.758 108.686 359.589 108.813 359.454C108.944 359.32 109.13 359.253 109.37 359.253C109.609 359.253 109.795 359.32 109.926 359.454C110.057 359.589 110.122 359.758 110.122 359.962C110.122 360.161 110.057 360.329 109.926 360.463C109.795 360.594 109.609 360.659 109.37 360.659C109.13 360.659 108.944 360.594 108.813 360.463C108.686 360.329 108.623 360.161 108.623 359.962ZM113.376 361.494L113.414 362.175C113.851 361.648 114.423 361.385 115.132 361.385C116.361 361.385 116.986 362.088 117.008 363.495V367.393H115.683V363.571C115.683 363.197 115.601 362.92 115.437 362.742C115.277 362.56 115.014 362.47 114.647 362.47C114.112 362.47 113.714 362.711 113.453 363.195V367.393H112.128V361.494H113.376ZM118.801 364.4C118.801 363.484 119.015 362.753 119.444 362.208C119.877 361.659 120.449 361.385 121.162 361.385C121.834 361.385 122.363 361.619 122.748 362.088L122.808 361.494H124.002V367.213C124.002 367.987 123.761 368.598 123.277 369.045C122.797 369.492 122.148 369.716 121.331 369.716C120.898 369.716 120.475 369.625 120.06 369.443C119.649 369.265 119.337 369.031 119.122 368.74L119.749 367.944C120.157 368.427 120.658 368.669 121.254 368.669C121.694 368.669 122.041 368.549 122.296 368.309C122.55 368.073 122.677 367.724 122.677 367.262V366.864C122.296 367.289 121.787 367.502 121.151 367.502C120.46 367.502 119.895 367.228 119.455 366.679C119.019 366.13 118.801 365.37 118.801 364.4ZM120.12 364.514C120.12 365.107 120.24 365.574 120.48 365.915C120.724 366.254 121.06 366.423 121.489 366.423C122.023 366.423 122.419 366.194 122.677 365.736V363.14C122.427 362.693 122.034 362.47 121.5 362.47C121.063 362.47 120.724 362.642 120.48 362.988C120.24 363.333 120.12 363.842 120.12 364.514Z" fill="white"/>
<g filter="url(#filter4_d)">
<rect x="23" y="338.782" width="50.2486" height="50.2486" rx="25.1243" fill="white"/>
<path d="M57.197 361.767C57.5524 361.431 57.8865 361.09 58.1954 360.749C58.7261 360.161 58.7261 359.267 58.1954 358.678C55.7546 355.997 51.8753 353.377 48.1243 353.439C44.3733 353.377 40.4939 355.997 38.055 358.682C37.5248 359.27 37.5248 360.165 38.055 360.753C39.8649 362.78 42.1209 364.358 44.645 365.364" stroke="#EC1115" stroke-width="1.3958" stroke-linecap="round" stroke-linejoin="round"/>
<path d="M46.0259 362.511C44.7157 361.525 44.2689 359.76 44.9521 358.269C45.6354 356.778 47.2644 355.964 48.8667 356.313C50.4689 356.662 51.6121 358.08 51.6138 359.719" stroke="#EC1115" stroke-width="1.3958" stroke-linecap="round" stroke-linejoin="round"/>
<path fill-rule="evenodd" clip-rule="evenodd" d="M51.6138 372.282C54.3119 372.282 56.4991 370.094 56.4991 367.396C56.4991 364.698 54.3119 362.511 51.6138 362.511C48.9157 362.511 46.7285 364.698 46.7285 367.396C46.7285 370.094 48.9157 372.282 51.6138 372.282Z" stroke="#EC1115" stroke-width="1.3958" stroke-linecap="round" stroke-linejoin="round"/>
<path d="M58.5928 374.375L55.0903 370.873" stroke="#EC1115" stroke-width="1.3958" stroke-linecap="round" stroke-linejoin="round"/>
</g>
<rect x="55.5685" y="425.322" width="96.7751" height="22.3327" rx="11.1664" fill="#EC1115"/>
<path d="M87.2084 436.916H85.6709V439.974H84.2914V432.036H87.083C87.999 432.036 88.706 432.241 89.204 432.652C89.702 433.063 89.951 433.657 89.951 434.435C89.951 434.966 89.8219 435.411 89.5638 435.771C89.3094 436.127 88.9532 436.401 88.4952 436.594L90.2781 439.904V439.974H88.8005L87.2084 436.916ZM85.6709 435.809H87.0885C87.5537 435.809 87.9172 435.693 88.1789 435.46C88.4407 435.224 88.5715 434.902 88.5715 434.495C88.5715 434.07 88.4497 433.741 88.2062 433.508C87.9663 433.275 87.6065 433.155 87.1267 433.148H85.6709V435.809ZM94.3994 440.083C93.5597 440.083 92.8782 439.82 92.3548 439.293C91.835 438.762 91.5751 438.057 91.5751 437.177V437.014C91.5751 436.425 91.6878 435.9 91.9131 435.438C92.1421 434.973 92.462 434.611 92.8727 434.353C93.2835 434.095 93.7415 433.966 94.2467 433.966C95.05 433.966 95.6698 434.222 96.106 434.735C96.5458 435.247 96.7657 435.972 96.7657 436.91V437.445H92.9109C92.9509 437.932 93.1126 438.317 93.3962 438.6C93.6833 438.884 94.0432 439.026 94.4757 439.026C95.0828 439.026 95.5771 438.78 95.9588 438.29L96.673 438.971C96.4368 439.324 96.1205 439.598 95.7243 439.794C95.3317 439.987 94.8901 440.083 94.3994 440.083ZM94.2413 435.029C93.8778 435.029 93.5834 435.156 93.358 435.411C93.1363 435.665 92.9945 436.02 92.9327 436.474H95.4571V436.376C95.4281 435.932 95.3099 435.598 95.1027 435.373C94.8956 435.144 94.6084 435.029 94.2413 435.029ZM99.8783 439.974H98.5534V431.6H99.8783V439.974ZM104.594 440.083C103.754 440.083 103.073 439.82 102.549 439.293C102.03 438.762 101.77 438.057 101.77 437.177V437.014C101.77 436.425 101.882 435.9 102.108 435.438C102.337 434.973 102.657 434.611 103.067 434.353C103.478 434.095 103.936 433.966 104.441 433.966C105.245 433.966 105.864 434.222 106.301 434.735C106.74 435.247 106.96 435.972 106.96 436.91V437.445H103.105C103.145 437.932 103.307 438.317 103.591 438.6C103.878 438.884 104.238 439.026 104.67 439.026C105.277 439.026 105.772 438.78 106.153 438.29L106.868 438.971C106.631 439.324 106.315 439.598 105.919 439.794C105.526 439.987 105.085 440.083 104.594 440.083ZM104.436 435.029C104.072 435.029 103.778 435.156 103.553 435.411C103.331 435.665 103.189 436.02 103.127 436.474H105.652V436.376C105.623 435.932 105.504 435.598 105.297 435.373C105.09 435.144 104.803 435.029 104.436 435.029ZM112.188 439.974C112.13 439.862 112.079 439.678 112.036 439.424C111.614 439.864 111.098 440.083 110.487 440.083C109.895 440.083 109.411 439.914 109.037 439.576C108.663 439.238 108.475 438.82 108.475 438.322C108.475 437.694 108.708 437.212 109.173 436.877C109.642 436.539 110.311 436.37 111.18 436.37H111.992V435.983C111.992 435.678 111.907 435.434 111.736 435.253C111.565 435.067 111.305 434.975 110.956 434.975C110.654 434.975 110.407 435.051 110.215 435.204C110.022 435.353 109.926 435.543 109.926 435.776H108.601C108.601 435.453 108.708 435.151 108.922 434.871C109.137 434.588 109.428 434.366 109.795 434.206C110.166 434.046 110.578 433.966 111.032 433.966C111.723 433.966 112.274 434.14 112.685 434.489C113.095 434.835 113.306 435.322 113.317 435.951V438.611C113.317 439.142 113.392 439.565 113.541 439.882V439.974H112.188ZM110.733 439.02C110.994 439.02 111.24 438.957 111.469 438.829C111.701 438.702 111.876 438.531 111.992 438.317V437.205H111.278C110.787 437.205 110.418 437.29 110.171 437.461C109.924 437.632 109.8 437.873 109.8 438.186C109.8 438.44 109.884 438.644 110.051 438.797C110.222 438.946 110.449 439.02 110.733 439.02ZM118.681 438.371C118.681 438.135 118.583 437.955 118.387 437.832C118.194 437.708 117.873 437.599 117.422 437.505C116.971 437.41 116.595 437.29 116.293 437.145C115.632 436.825 115.301 436.361 115.301 435.754C115.301 435.245 115.515 434.82 115.944 434.478C116.373 434.137 116.919 433.966 117.58 433.966C118.285 433.966 118.854 434.14 119.287 434.489C119.723 434.838 119.941 435.291 119.941 435.847H118.616C118.616 435.593 118.522 435.382 118.332 435.215C118.143 435.044 117.893 434.958 117.58 434.958C117.289 434.958 117.051 435.026 116.866 435.16C116.684 435.294 116.593 435.474 116.593 435.7C116.593 435.903 116.679 436.061 116.849 436.174C117.02 436.287 117.366 436.401 117.885 436.518C118.405 436.63 118.812 436.767 119.107 436.927C119.405 437.083 119.625 437.272 119.766 437.494C119.912 437.715 119.985 437.984 119.985 438.301C119.985 438.831 119.765 439.262 119.325 439.593C118.885 439.92 118.309 440.083 117.596 440.083C117.113 440.083 116.682 439.996 116.304 439.822C115.926 439.647 115.632 439.407 115.421 439.102C115.21 438.797 115.105 438.468 115.105 438.115H116.391C116.41 438.428 116.528 438.669 116.746 438.84C116.964 439.008 117.253 439.091 117.613 439.091C117.962 439.091 118.227 439.026 118.409 438.895C118.591 438.76 118.681 438.586 118.681 438.371ZM123.223 439.974H121.898V434.075H123.223V439.974ZM121.816 432.543C121.816 432.339 121.879 432.17 122.007 432.036C122.138 431.901 122.323 431.834 122.563 431.834C122.803 431.834 122.988 431.901 123.119 432.036C123.25 432.17 123.315 432.339 123.315 432.543C123.315 432.743 123.25 432.91 123.119 433.045C122.988 433.175 122.803 433.241 122.563 433.241C122.323 433.241 122.138 433.175 122.007 433.045C121.879 432.91 121.816 432.743 121.816 432.543ZM126.57 434.075L126.608 434.757C127.044 434.229 127.616 433.966 128.325 433.966C129.554 433.966 130.179 434.669 130.201 436.076V439.974H128.876V436.152C128.876 435.778 128.794 435.502 128.631 435.324C128.471 435.142 128.207 435.051 127.84 435.051C127.306 435.051 126.908 435.293 126.646 435.776V439.974H125.321V434.075H126.57ZM131.994 436.981C131.994 436.065 132.209 435.334 132.637 434.789C133.07 434.24 133.642 433.966 134.355 433.966C135.027 433.966 135.556 434.2 135.942 434.669L136.002 434.075H137.196V439.794C137.196 440.569 136.954 441.179 136.47 441.626C135.991 442.074 135.342 442.297 134.524 442.297C134.091 442.297 133.668 442.206 133.254 442.024C132.843 441.846 132.53 441.612 132.316 441.321L132.943 440.525C133.35 441.009 133.851 441.25 134.448 441.25C134.887 441.25 135.235 441.13 135.489 440.89C135.743 440.654 135.871 440.305 135.871 439.844V439.446C135.489 439.871 134.98 440.083 134.344 440.083C133.653 440.083 133.088 439.809 132.648 439.26C132.212 438.711 131.994 437.952 131.994 436.981ZM133.314 437.096C133.314 437.688 133.433 438.155 133.673 438.497C133.917 438.835 134.253 439.004 134.682 439.004C135.216 439.004 135.613 438.775 135.871 438.317V435.722C135.62 435.275 135.227 435.051 134.693 435.051C134.257 435.051 133.917 435.224 133.673 435.569C133.433 435.914 133.314 436.423 133.314 437.096Z" fill="white"/>
<g filter="url(#filter5_d)">
<rect x="23" y="411.364" width="50.2486" height="50.2486" rx="25.1243" fill="white"/>
<path d="M53.0096 430.207H54.4054C55.1763 430.207 55.8012 430.832 55.8012 431.603V438.582C55.8012 439.353 55.1763 439.978 54.4054 439.978H52.3117" stroke="#EC1115" stroke-width="1.3958" stroke-linecap="round" stroke-linejoin="round"/>
<path d="M43.9369 439.978H41.8432C41.0724 439.978 40.4474 439.353 40.4474 438.582V431.603C40.4474 430.832 41.0724 430.207 41.8432 430.207H43.239" stroke="#EC1115" stroke-width="1.3958" stroke-linecap="round" stroke-linejoin="round"/>
<path d="M54.2388 439.978C55.296 439.978 56.2625 440.575 56.7354 441.52L58.4439 444.936C58.6603 445.369 58.6372 445.883 58.3828 446.295C58.1284 446.706 57.679 446.957 57.1951 446.957H39.0535C38.5696 446.957 38.1202 446.706 37.8658 446.295C37.6114 445.883 37.5883 445.369 37.8047 444.936L39.5132 441.52C39.9861 440.575 40.9526 439.978 42.0098 439.978" stroke="#EC1115" stroke-width="1.3958" stroke-linecap="round" stroke-linejoin="round"/>
<path fill-rule="evenodd" clip-rule="evenodd" d="M50.218 429.003C50.218 427.355 48.1243 426.02 48.1243 426.02C48.1243 426.02 46.0306 427.355 46.0306 429.003V435.964H50.218V429.003Z" stroke="#EC1115" stroke-width="1.3958" stroke-linecap="round" stroke-linejoin="round"/>
<path d="M46.0306 435.964H43.4828C43.3267 435.967 43.1765 435.904 43.0687 435.791C42.9715 435.688 42.9361 435.54 42.9757 435.404C43.4803 434.004 44.6105 432.92 46.0306 432.475" stroke="#EC1115" stroke-width="1.3958" stroke-linecap="round" stroke-linejoin="round"/>
<path d="M50.218 435.964H52.7658C52.9216 435.967 53.0714 435.904 53.179 435.791C53.2765 435.688 53.312 435.54 53.272 435.404C52.7662 434.005 51.6369 432.922 50.218 432.475" stroke="#EC1115" stroke-width="1.3958" stroke-linecap="round" stroke-linejoin="round"/>
<path d="M46.7285 438.582V440.676" stroke="#EC1115" stroke-width="1.3958" stroke-linecap="round" stroke-linejoin="round"/>
<path d="M49.5201 438.582V442.769" stroke="#EC1115" stroke-width="1.3958" stroke-linecap="round" stroke-linejoin="round"/>
</g>
<path d="M139.305 19.6106L130 10.3053L139.305 0.999993" stroke="#343541" stroke-width="2" stroke-linecap="round"/>
<path d="M217.5 253.305L226.805 244L236.111 253.305" stroke="#343541" stroke-width="2" stroke-linecap="round"/>
<path d="M127 494L136.305 503.305L127 512.611" stroke="#343541" stroke-width="2" stroke-linecap="round"/>
<defs>
<filter id="filter0_d" x="0.667274" y="29.8465" width="94.9141" height="94.9141" filterUnits="userSpaceOnUse" color-interpolation-filters="sRGB">
<feFlood flood-opacity="0" result="BackgroundImageFix"/>
<feColorMatrix in="SourceAlpha" type="matrix" values="0 0 0 0 0 0 0 0 0 0 0 0 0 0 0 0 0 0 127 0" result="hardAlpha"/>
<feOffset dy="3.72212"/>
<feGaussianBlur stdDeviation="11.1664"/>
<feComposite in2="hardAlpha" operator="out"/>
<feColorMatrix type="matrix" values="0 0 0 0 0 0 0 0 0 0 0 0 0 0 0 0 0 0 0.07 0"/>
<feBlend mode="normal" in2="BackgroundImageFix" result="effect1_dropShadow"/>
<feBlend mode="normal" in="SourceGraphic" in2="effect1_dropShadow" result="shape"/>
</filter>
<filter id="filter1_d" x="0.667274" y="102.428" width="94.9141" height="94.9141" filterUnits="userSpaceOnUse" color-interpolation-filters="sRGB">
<feFlood flood-opacity="0" result="BackgroundImageFix"/>
<feColorMatrix in="SourceAlpha" type="matrix" values="0 0 0 0 0 0 0 0 0 0 0 0 0 0 0 0 0 0 127 0" result="hardAlpha"/>
<feOffset dy="3.72212"/>
<feGaussianBlur stdDeviation="11.1664"/>
<feComposite in2="hardAlpha" operator="out"/>
<feColorMatrix type="matrix" values="0 0 0 0 0 0 0 0 0 0 0 0 0 0 0 0 0 0 0.07 0"/>
<feBlend mode="normal" in2="BackgroundImageFix" result="effect1_dropShadow"/>
<feBlend mode="normal" in="SourceGraphic" in2="effect1_dropShadow" result="shape"/>
</filter>
<filter id="filter2_d" x="0.667274" y="175.009" width="94.9141" height="94.9141" filterUnits="userSpaceOnUse" color-interpolation-filters="sRGB">
<feFlood flood-opacity="0" result="BackgroundImageFix"/>
<feColorMatrix in="SourceAlpha" type="matrix" values="0 0 0 0 0 0 0 0 0 0 0 0 0 0 0 0 0 0 127 0" result="hardAlpha"/>
<feOffset dy="3.72212"/>
<feGaussianBlur stdDeviation="11.1664"/>
<feComposite in2="hardAlpha" operator="out"/>
<feColorMatrix type="matrix" values="0 0 0 0 0 0 0 0 0 0 0 0 0 0 0 0 0 0 0.07 0"/>
<feBlend mode="normal" in2="BackgroundImageFix" result="effect1_dropShadow"/>
<feBlend mode="normal" in="SourceGraphic" in2="effect1_dropShadow" result="shape"/>
</filter>
<filter id="filter3_d" x="0.667274" y="247.591" width="94.9141" height="94.9141" filterUnits="userSpaceOnUse" color-interpolation-filters="sRGB">
<feFlood flood-opacity="0" result="BackgroundImageFix"/>
<feColorMatrix in="SourceAlpha" type="matrix" values="0 0 0 0 0 0 0 0 0 0 0 0 0 0 0 0 0 0 127 0" result="hardAlpha"/>
<feOffset dy="3.72212"/>
<feGaussianBlur stdDeviation="11.1664"/>
<feComposite in2="hardAlpha" operator="out"/>
<feColorMatrix type="matrix" values="0 0 0 0 0 0 0 0 0 0 0 0 0 0 0 0 0 0 0.07 0"/>
<feBlend mode="normal" in2="BackgroundImageFix" result="effect1_dropShadow"/>
<feBlend mode="normal" in="SourceGraphic" in2="effect1_dropShadow" result="shape"/>
</filter>
<filter id="filter4_d" x="0.667274" y="320.172" width="94.9141" height="94.9141" filterUnits="userSpaceOnUse" color-interpolation-filters="sRGB">
<feFlood flood-opacity="0" result="BackgroundImageFix"/>
<feColorMatrix in="SourceAlpha" type="matrix" values="0 0 0 0 0 0 0 0 0 0 0 0 0 0 0 0 0 0 127 0" result="hardAlpha"/>
<feOffset dy="3.72212"/>
<feGaussianBlur stdDeviation="11.1664"/>
<feComposite in2="hardAlpha" operator="out"/>
<feColorMatrix type="matrix" values="0 0 0 0 0 0 0 0 0 0 0 0 0 0 0 0 0 0 0.07 0"/>
<feBlend mode="normal" in2="BackgroundImageFix" result="effect1_dropShadow"/>
<feBlend mode="normal" in="SourceGraphic" in2="effect1_dropShadow" result="shape"/>
</filter>
<filter id="filter5_d" x="0.667274" y="392.753" width="94.9141" height="94.9141" filterUnits="userSpaceOnUse" color-interpolation-filters="sRGB">
<feFlood flood-opacity="0" result="BackgroundImageFix"/>
<feColorMatrix in="SourceAlpha" type="matrix" values="0 0 0 0 0 0 0 0 0 0 0 0 0 0 0 0 0 0 127 0" result="hardAlpha"/>
<feOffset dy="3.72212"/>
<feGaussianBlur stdDeviation="11.1664"/>
<feComposite in2="hardAlpha" operator="out"/>
<feColorMatrix type="matrix" values="0 0 0 0 0 0 0 0 0 0 0 0 0 0 0 0 0 0 0.07 0"/>
<feBlend mode="normal" in2="BackgroundImageFix" result="effect1_dropShadow"/>
<feBlend mode="normal" in="SourceGraphic" in2="effect1_dropShadow" result="shape"/>
</filter>
</defs>
</svg>
