<svg width="400" height="239" viewBox="0 0 400 239" fill="none" xmlns="http://www.w3.org/2000/svg">
<rect x="46.4089" width="307.182" height="198.895" rx="10" fill="#A60C0E"/>
<rect x="56.3536" y="9.94482" width="286.188" height="164.641" fill="#FDEBEB"/>
<path d="M46.4088 185.635H353.591L400 220.994H0L46.4088 185.635Z" fill="#F47073"/>
<path d="M69.3416 192.265H330.552L343.646 198.895H56.3536L69.3416 192.265Z" fill="#F7A0A1"/>
<path d="M53.3106 203.315H347.674L362.431 209.945H38.674L53.3106 203.315Z" fill="#F7A0A1"/>
<path d="M0 220.995H400L390.055 238.674H9.94475L0 220.995Z" fill="#A60C0E"/>
<path d="M287.987 105.201L341.245 174.896H234.729L287.987 105.201Z" fill="#343541"/>
<path d="M215.004 53.9154L307.712 174.896H122.296L215.004 53.9154Z" fill="#292A33"/>
<path d="M107.831 115.721L153.199 174.896H62.463L107.831 115.721Z" fill="#5D5D67"/>
<path d="M160.431 93.3657L222.894 174.896H97.9682L160.431 93.3657Z" fill="#484954"/>
<path d="M78.2631 174.239C77.1664 168.77 121.377 156.09 138.473 155.594C189.801 154.102 242.114 166.284 260.21 159.82C278.306 153.356 262.513 141.921 246.062 139.434C224.676 136.203 188.437 127.627 194.736 119.298C202.632 108.856 236.192 106.619 233.888 94.1889C232.046 84.2448 220.509 62.6993 214.806 53.9154" stroke="white" stroke-width="2" stroke-linecap="square" stroke-dasharray="8 8"/>
<path fill-rule="evenodd" clip-rule="evenodd" d="M213.704 93.7219C212.691 92.6518 211.317 92.0507 209.885 92.0507C206.902 92.0507 204.484 94.6053 204.484 97.7567C204.484 100.193 207.709 104.827 209.174 106.808C209.345 107.038 209.607 107.173 209.884 107.173C210.162 107.173 210.423 107.038 210.594 106.808C212.06 104.828 215.286 100.193 215.286 97.7567C215.286 96.2434 214.717 94.792 213.704 93.7219ZM209.885 99.612C211.078 99.612 212.045 98.6447 212.045 97.4516C212.045 96.2585 211.078 95.2912 209.885 95.2912C208.692 95.2912 207.725 96.2585 207.725 97.4516C207.725 98.6447 208.692 99.612 209.885 99.612Z" fill="white"/>
<path fill-rule="evenodd" clip-rule="evenodd" d="M251.839 123.31C250.826 122.24 249.453 121.638 248.02 121.638C245.037 121.638 242.619 124.193 242.619 127.344C242.619 129.78 245.844 134.415 247.31 136.396C247.481 136.626 247.742 136.761 248.02 136.761C248.297 136.761 248.559 136.626 248.73 136.396C250.195 134.416 253.421 129.78 253.421 127.344C253.421 125.831 252.852 124.38 251.839 123.31ZM248.02 129.2C249.213 129.2 250.18 128.233 250.18 127.039C250.18 125.846 249.213 124.879 248.02 124.879C246.827 124.879 245.86 125.846 245.86 127.039C245.86 128.233 246.827 129.2 248.02 129.2Z" fill="white"/>
<path fill-rule="evenodd" clip-rule="evenodd" d="M185.431 141.72C184.418 140.65 183.045 140.049 181.612 140.049C178.629 140.049 176.211 142.603 176.211 145.755C176.211 148.19 179.436 152.825 180.902 154.806C181.073 155.036 181.334 155.171 181.612 155.171C181.889 155.171 182.151 155.036 182.322 154.806C183.787 152.826 187.013 148.19 187.013 145.755C187.013 144.241 186.444 142.79 185.431 141.72ZM181.612 147.61C182.805 147.61 183.773 146.643 183.773 145.449C183.773 144.256 182.805 143.289 181.612 143.289C180.419 143.289 179.452 144.256 179.452 145.449C179.452 146.643 180.419 147.61 181.612 147.61Z" fill="white"/>
<path fill-rule="evenodd" clip-rule="evenodd" d="M94.6956 149.61C93.6827 148.54 92.309 147.939 90.8766 147.939C87.8937 147.939 85.4756 150.493 85.4756 153.645C85.4756 156.08 88.7006 160.715 90.1661 162.696C90.3369 162.926 90.5987 163.061 90.876 163.061C91.1532 163.061 91.4151 162.926 91.5859 162.696C93.0514 160.716 96.2775 156.08 96.2775 153.645C96.2775 152.131 95.7085 150.68 94.6956 149.61ZM90.8765 155.5C92.0696 155.5 93.0369 154.533 93.0369 153.34C93.0369 152.146 92.0696 151.179 90.8765 151.179C89.6834 151.179 88.7161 152.146 88.7161 153.34C88.7161 154.533 89.6834 155.5 90.8765 155.5Z" fill="white"/>
<path d="M335.064 54.1435C327.511 54.1435 321.388 47.8594 321.388 40.1077C321.388 47.8594 315.265 54.1435 307.712 54.1435C315.265 54.1435 321.388 60.4275 321.388 68.1792C321.388 60.4275 327.511 54.1435 335.064 54.1435Z" fill="#F56064" fill-opacity="0.4"/>
<path d="M290.672 74.0279C286.299 74.0279 282.755 70.322 282.755 65.7504C282.755 70.322 279.21 74.0279 274.837 74.0279C279.21 74.0279 282.755 77.7339 282.755 82.3054C282.755 77.7339 286.299 74.0279 290.672 74.0279Z" fill="#F56064" fill-opacity="0.7"/>
<path d="M296.404 31.1033C293.172 31.1033 290.552 28.3641 290.552 24.9852C290.552 28.3641 287.932 31.1033 284.7 31.1033C287.932 31.1033 290.552 33.8425 290.552 37.2214C290.552 33.8425 293.172 31.1033 296.404 31.1033Z" fill="#F56064"/>
<path d="M67.723 54.1435C75.276 54.1435 81.3989 47.8594 81.3989 40.1077C81.3989 47.8594 87.5217 54.1435 95.0747 54.1435C87.5217 54.1435 81.3989 60.4275 81.3989 68.1792C81.3989 60.4275 75.276 54.1435 67.723 54.1435Z" fill="#F56064" fill-opacity="0.4"/>
<path d="M112.115 74.0279C116.488 74.0279 120.032 70.322 120.032 65.7504C120.032 70.322 123.577 74.0279 127.95 74.0279C123.577 74.0279 120.032 77.7339 120.032 82.3054C120.032 77.7339 116.488 74.0279 112.115 74.0279Z" fill="#F56064" fill-opacity="0.7"/>
<path d="M106.383 31.1033C109.615 31.1033 112.235 28.3641 112.235 24.9852C112.235 28.3641 114.855 31.1033 118.087 31.1033C114.855 31.1033 112.235 33.8425 112.235 37.2214C112.235 33.8425 109.615 31.1033 106.383 31.1033Z" fill="#F56064"/>
<path fill-rule="evenodd" clip-rule="evenodd" d="M221.99 17.3987L261.533 25.0141C262.001 25.1048 262.392 25.4255 262.572 25.8668C262.753 26.3082 262.698 26.8107 262.427 27.2032L256.064 36.3502C255.835 36.6786 255.756 37.0884 255.846 37.4782L258.369 48.3192C258.477 48.7857 258.342 49.2754 258.01 49.6205C257.678 49.9657 257.194 50.1193 256.724 50.0289L217.173 42.4121" fill="#EC1115"/>
<path d="M221.99 17.3987L261.533 25.0141C262.001 25.1048 262.392 25.4255 262.572 25.8668C262.753 26.3082 262.698 26.8107 262.427 27.2032L256.064 36.3502C255.835 36.6786 255.756 37.0884 255.846 37.4782L258.369 48.3192C258.477 48.7857 258.342 49.2754 258.01 49.6205C257.678 49.9657 257.194 50.1193 256.724 50.0289L217.173 42.4121" stroke="#EC1115" stroke-width="0.768004" stroke-linecap="round" stroke-linejoin="round"/>
<path fill-rule="evenodd" clip-rule="evenodd" d="M222.534 14.6222L214.508 56.2957Z" fill="#EC1115"/>
<path d="M222.534 14.6222L214.508 56.2957" stroke="#343541" stroke-width="1.79201" stroke-linecap="round" stroke-linejoin="round"/>
<path fill-rule="evenodd" clip-rule="evenodd" d="M234.895 40.8017C233.78 41.9157 231.549 41.4281 231.549 41.4281C231.549 41.4281 231.058 39.1971 232.175 38.0873C232.513 37.7228 232.997 37.5302 233.492 37.5633C233.988 37.5963 234.442 37.8514 234.728 38.2575C235.131 38.5442 235.383 38.9967 235.415 39.49C235.448 39.9832 235.257 40.4648 234.895 40.8017V40.8017Z" fill="#EC1115" stroke="white" stroke-width="1.40746" stroke-linecap="round" stroke-linejoin="round"/>
<path fill-rule="evenodd" clip-rule="evenodd" d="M246.444 26.7608L247.562 25.6426Z" fill="#EC1115"/>
<path d="M246.444 26.7608L247.562 25.6426" stroke="white" stroke-width="1.40746" stroke-linecap="round" stroke-linejoin="round"/>
<path fill-rule="evenodd" clip-rule="evenodd" d="M246.593 30.6674L246.444 26.7607L242.536 26.6115C241.363 26.6363 240.28 27.2434 239.646 28.2307L235.401 35.2621L237.943 37.8054L244.973 33.5583C245.96 32.9243 246.568 31.8406 246.593 30.6674Z" fill="#EC1115" stroke="white" stroke-width="1.40746" stroke-linecap="round" stroke-linejoin="round"/>
<path fill-rule="evenodd" clip-rule="evenodd" d="M237.176 32.3212L236.012 31.7689C235.414 31.4557 234.685 31.5406 234.175 31.9829L232.528 33.6293C232.419 33.7543 232.396 33.9334 232.472 34.0814C232.546 34.2565 232.692 34.3916 232.872 34.4531L235.396 35.2664" fill="#EC1115"/>
<path d="M237.176 32.3212L236.012 31.7689C235.414 31.4557 234.685 31.5406 234.175 31.9829L232.528 33.6293C232.419 33.7543 232.396 33.9334 232.472 34.0814C232.546 34.2565 232.692 34.3916 232.872 34.4531L235.396 35.2664" stroke="white" stroke-width="1.40746" stroke-linecap="round" stroke-linejoin="round"/>
<path fill-rule="evenodd" clip-rule="evenodd" d="M240.929 35.9993L241.435 37.1926C241.75 37.7897 241.667 38.5188 241.226 39.03L239.581 40.6754C239.455 40.7843 239.276 40.8065 239.127 40.7318C238.953 40.6574 238.818 40.5119 238.757 40.3319L237.943 37.8065" fill="#EC1115"/>
<path d="M240.929 35.9993L241.435 37.1926C241.75 37.7897 241.667 38.5188 241.226 39.03L239.581 40.6754C239.455 40.7843 239.276 40.8065 239.127 40.7318C238.953 40.6574 238.818 40.5119 238.757 40.3319L237.943 37.8065" stroke="white" stroke-width="1.40746" stroke-linecap="round" stroke-linejoin="round"/>
<path fill-rule="evenodd" clip-rule="evenodd" d="M242.571 32.2C243.435 32.2 244.137 31.4989 244.137 30.634C244.137 29.7691 243.435 29.068 242.571 29.068C241.706 29.068 241.005 29.7691 241.005 30.634C241.005 31.4989 241.706 32.2 242.571 32.2Z" fill="#EC1115" stroke="white" stroke-width="1.40746" stroke-linecap="round" stroke-linejoin="round"/>
</svg>
