<svg width="24" height="25" viewBox="0 0 24 25" fill="none" xmlns="http://www.w3.org/2000/svg">
<path fill-rule="evenodd" clip-rule="evenodd" d="M11.6689 23.4502C15.3969 23.4502 18.4189 20.4281 18.4189 16.7002C18.4189 12.9723 15.3969 9.9502 11.6689 9.9502C7.94102 9.9502 4.91895 12.9723 4.91895 16.7002C4.91895 20.4281 7.94102 23.4502 11.6689 23.4502Z" stroke="#EC1115" stroke-linecap="round" stroke-linejoin="round"/>
<path d="M10.75 12.9502V16.7002L13.75 18.9502" stroke="#EC1115" stroke-linecap="round" stroke-linejoin="round"/>
<path d="M18.379 15.9642C20.6566 15.2259 22.1913 13.0944 22.169 10.7002C22.1346 8.72326 21.3268 6.83852 19.919 5.4502C19.833 6.15261 19.4644 6.78963 18.8982 7.21422C18.3321 7.63882 17.6174 7.81431 16.919 7.7002C14.9524 6.04688 14.3377 3.28081 15.419 0.950195C10.731 0.950195 7.73097 3.7162 7.16897 7.7002C5.73449 7.84999 4.42683 6.86924 4.16897 5.4502C0.404974 8.6502 1.31597 14.4932 4.95797 15.9672" stroke="#EC1115" stroke-linecap="round" stroke-linejoin="round"/>
</svg>
