<svg width="50" height="50" viewBox="0 0 50 50" fill="none" xmlns="http://www.w3.org/2000/svg">
<path d="M26.5625 29.6875V42.7458C26.5625 45.8893 24.0143 48.4375 20.8708 48.4375H7.25625C4.11249 48.4375 1.56365 45.8896 1.5625 42.7458V10.3812C1.56365 7.23716 4.11216 4.68865 7.25625 4.6875H12.5" stroke="#EC1115" stroke-width="2" stroke-linecap="round" stroke-linejoin="round"/>
<path d="M1.5625 39.0625H26.5625" stroke="#EC1115" stroke-width="2" stroke-linecap="round" stroke-linejoin="round"/>
<path fill-rule="evenodd" clip-rule="evenodd" d="M42.1875 1.5625H25C21.5482 1.5625 18.75 4.36072 18.75 7.8125V17.1875C18.75 20.6393 21.5482 23.4375 25 23.4375H32.8125V31.25L40.625 23.4375H42.1875C45.6393 23.4375 48.4375 20.6393 48.4375 17.1875V7.8125C48.4375 4.36072 45.6393 1.5625 42.1875 1.5625Z" stroke="#EC1115" stroke-width="2" stroke-linecap="round" stroke-linejoin="round"/>
<path d="M25.7813 11.7188C25.3498 11.7188 25 12.0685 25 12.5C25 12.9315 25.3498 13.2812 25.7813 13.2812C26.2127 13.2812 26.5625 12.9315 26.5625 12.5C26.5625 12.0685 26.2127 11.7188 25.7813 11.7188" stroke="#EC1115" stroke-width="2" stroke-linecap="round" stroke-linejoin="round"/>
<path d="M33.5938 11.7188C33.1623 11.7188 32.8125 12.0685 32.8125 12.5C32.8125 12.9315 33.1623 13.2812 33.5938 13.2812C34.0252 13.2812 34.375 12.9315 34.375 12.5C34.375 12.0685 34.0252 11.7188 33.5938 11.7188" stroke="#EC1115" stroke-width="2" stroke-linecap="round" stroke-linejoin="round"/>
<path d="M41.4063 11.7188C40.9748 11.7188 40.625 12.0685 40.625 12.5C40.625 12.9315 40.9748 13.2812 41.4063 13.2812C41.8377 13.2812 42.1875 12.9315 42.1875 12.5C42.1875 12.0685 41.8377 11.7188 41.4063 11.7188" stroke="#EC1115" stroke-width="1.5" stroke-linecap="round" stroke-linejoin="round"/>
</svg>
